<mxfile host="app.diagrams.net" modified="2023-06-21T12:02:35.654Z" agent="Mozilla/5.0 (X11; Linux x86_64; rv:109.0) Gecko/20100101 Firefox/112.0" version="21.5.0" etag="9Nuq2p39dDI0UrKHU51B" type="github">
  <diagram name="Страница 1" id="WJbxW6u-W4_BS-IusuF5">
    <mxGraphModel>
      <root>
        <mxCell id="0" />
        <mxCell id="1" parent="0" />
      </root>
    </mxGraphModel>
  </diagram>
</mxfile>
